Coordinates
version=1
nRows=12
nColumns=23
inDegrees=yes

Units are S.I. units (second, meters, Newtons, ...)
Angles are in degrees.

endheader
time	thorax_tilt	thorax_list	thorax_rotation	thorax_tx	thorax_ty	thorax_tz	sternoclavicular_r2	sternoclavicular_r3	unrotscap_r3	unrotscap_r2	acromioclavicular_r2	acromioclavicular_r3	acromioclavicular_r1	unrothum_r1	unrothum_r3	unrothum_r2	elv_angle	shoulder_elv	shoulder1_r2	shoulder_rot	elbow_flexion	pro_sup
      1.55200000	     -2.95039967	      4.18798524	      1.38431028	     -0.42338847	      1.57756445	      0.01805596	    -18.46716445	      7.81885081	     -7.82185623	     18.46535930	     -3.73853337	     30.21480321	     13.58226089	    -13.58184198	    -30.21591676	      3.73878889	     70.81477652	     76.30266222	    -70.81477149	     27.80207942	     53.38718448	      1.31050118
      1.55600000	     -2.95066319	      4.19054390	      1.37795404	     -0.42361984	      1.57743599	      0.01816376	    -18.46704272	      7.81888622	     -7.82186559	     18.46533173	     -3.73853978	     30.21482119	     13.58228829	    -13.58178701	    -30.21581940	      3.73876566	     70.81340144	     76.30220801	    -70.81391634	     27.80062027	     53.38896725	      1.31031114
      1.56000000	     -2.95004576	      4.19422426	      1.36864369	     -0.42386921	      1.57729974	      0.01827773	    -18.46735182	      7.81874876	     -7.82188800	     18.46517725	     -3.73867853	     30.21471227	     13.58219679	    -13.58184536	    -30.21590322	      3.73864109	     70.81211834	     76.30239410	    -70.81225035	     27.79810478	     53.39255517	      1.30995868
      1.56400000	     -2.94820554	      4.19945511	      1.35550743	     -0.42412720	      1.57715623	      0.01839269	    -18.46738552	      7.81879872	     -7.82196418	     18.46532582	     -3.73867128	     30.21493889	     13.58234310	    -13.58186859	    -30.21603615	      3.73868869	     70.81031006	     76.30333282	    -70.81025999	     27.79415856	     53.39874645	      1.30938239
      1.56800000	     -3.03014769	      4.47654450	      1.10717563	     -0.42296922	      1.57795369	      0.01846434	    -18.44843344	      7.81074807	     -7.81382243	     18.44637985	     -3.73473968	     30.18377919	     13.56828108	    -13.56794199	    -30.18494393	      3.73492555	     70.85259238	     76.22472798	    -70.85245809	     27.73109404	     54.21296319	      1.27536574
      1.57200000	     -3.02773059	      4.47482035	      1.10079902	     -0.42323949	      1.57774794	      0.01861260	    -18.44863475	      7.81096996	     -7.81397697	     18.44665420	     -3.73485443	     30.18439341	     13.56856677	    -13.56811707	    -30.18534377	      3.73492883	     70.85100740	     76.22559742	    -70.85093831	     27.73018529	     54.21738862	      1.27515600
      1.57600000	     -3.02289198	      4.47314664	      1.08979012	     -0.42351940	      1.57758398	      0.01873621	    -18.44926738	      7.81120221	     -7.81425999	     18.44723684	     -3.73500527	     30.18538266	     13.56902364	    -13.56855804	    -30.18634984	      3.73502497	     70.84877243	     76.22804153	    -70.84895115	     27.72762448	     54.22572247	      1.27467625
      1.58000000	     -3.14139130	      4.30722380	      0.77713117	     -0.42195636	      1.57698771	      0.01861535	    -18.41572187	      7.79698263	     -7.80008105	     18.41386437	     -3.72816474	     30.13057129	     13.54438643	    -13.54403658	    -30.13180336	      3.72833402	     70.79420459	     76.09013410	    -70.79430452	     27.70395031	     55.45185115	      1.22175181
      1.58400000	     -3.14142378	      4.31007444	      0.77055914	     -0.42222102	      1.57687073	      0.01873514	    -18.41577231	      7.79687547	     -7.80008629	     18.41357077	     -3.72827205	     30.13027020	     13.54425938	    -13.54395849	    -30.13160929	      3.72815924	     70.79281691	     76.08921405	    -70.79283902	     27.70082494	     55.45369208	      1.22119715
      1.58800000	     -3.13996683	      4.31502972	      0.75872025	     -0.42253130	      1.57673693	      0.01887318	    -18.41557180	      7.79683021	     -7.80007694	     18.41351619	     -3.72821017	     30.13014909	     13.54425992	    -13.54381282	    -30.13138607	      3.72817383	     70.79055481	     76.08906996	    -70.79082090	     27.69521060	     55.45855886	      1.22027222
      1.59200000	     -3.08587206	      4.38842594	      0.61159524	     -0.42221487	      1.57663281	      0.01860552	    -18.41854807	      7.79822854	     -7.80132489	     18.41693868	     -3.72859524	     30.13530417	     13.54658664	    -13.54616521	    -30.13663338	      3.72907654	     70.77152222	     76.10210370	    -70.77110759	     27.59989572	     55.57432183	      1.20388332
      1.59600000	     -3.22693213	      4.37237072	      0.44386247	     -0.42108147	      1.57699912	      0.01874751	    -18.35037016	      7.76933065	     -7.77243073	     18.34882410	     -3.71488409	     30.02411570	     13.49658587	    -13.49592846	    -30.02501008	      3.71525369	     70.70742831	     75.82078337	    -70.70746968	     27.32218805	     56.85307159	      1.10219821
